<svg width="60" height="20" viewBox="0 0 60 20" fill="none" xmlns="http://www.w3.org/2000/svg">
<g id="Group 47531">
<g id="Rectangle 4448" filter="url(#filter0_d_274_2511)">
<path d="M0 0H58C59.1046 0 60 0.895431 60 2V20H20C8.9543 20 0 11.0457 0 0V0Z" fill="url(#paint0_linear_274_2511)"/>
</g>
<path id="&#230;&#138;&#152;&#230;&#137;&#163;" d="M28.79 10.6C28.63 10.66 28.46 10.7233 28.28 10.79C28.1067 10.8567 27.9233 10.9233 27.73 10.99V13.76C27.73 13.9533 27.71 14.11 27.67 14.23C27.6367 14.35 27.5767 14.4467 27.49 14.52C27.4033 14.5933 27.2867 14.6467 27.14 14.68C27 14.7133 26.8267 14.74 26.62 14.76L26.04 14.81L25.79 14.1L26.4 14.04C26.6467 14.0133 26.8067 13.9667 26.88 13.9C26.96 13.8333 27 13.6933 27 13.48V11.24C26.7467 11.32 26.5 11.3967 26.26 11.47C26.02 11.5367 25.7933 11.59 25.58 11.63L25.36 10.9C25.6133 10.8467 25.8767 10.7833 26.15 10.71C26.43 10.63 26.7133 10.5433 27 10.45V8.48H25.67V7.79H27V5.96L27.73 5.99V7.79H28.95V8.48H27.73V10.21C27.91 10.1433 28.0833 10.08 28.25 10.02C28.4233 9.95333 28.5867 9.89 28.74 9.83L28.77 10.26L28.79 10.6ZM34.42 10.22H32.76V14.95H31.99V10.22H30.17C30.1633 10.82 30.1367 11.34 30.09 11.78C30.05 12.22 29.9767 12.62 29.87 12.98C29.7633 13.34 29.6167 13.6833 29.43 14.01C29.25 14.3367 29.0167 14.6833 28.73 15.05L28.04 14.64C28.34 14.28 28.5833 13.95 28.77 13.65C28.9567 13.3433 29.1 13.0167 29.2 12.67C29.3 12.3167 29.3667 11.92 29.4 11.48C29.44 11.0333 29.46 10.4933 29.46 9.86V6.9C30.16 6.84667 30.8667 6.76667 31.58 6.66C32.2933 6.54667 32.99 6.41333 33.67 6.26L33.87 7.01C33.5767 7.07667 33.27 7.14 32.95 7.2C32.6367 7.26 32.32 7.31667 32 7.37C31.6867 7.41667 31.3733 7.46 31.06 7.5C30.7467 7.53333 30.45 7.56333 30.17 7.59V9.52H34.42V10.22ZM37.6138 7.81H38.9638V8.53H37.6138V10.44C37.8604 10.3533 38.0938 10.2733 38.3138 10.2C38.5338 10.12 38.7238 10.0467 38.8838 9.98L38.9338 10.41L38.9638 10.7C38.7904 10.7733 38.5871 10.8533 38.3538 10.94C38.1204 11.02 37.8738 11.1033 37.6138 11.19V13.77C37.6138 13.9833 37.5904 14.1567 37.5438 14.29C37.5038 14.4233 37.4338 14.53 37.3338 14.61C37.2404 14.69 37.1138 14.75 36.9538 14.79C36.7938 14.83 36.6004 14.8567 36.3738 14.87L35.9238 14.91L35.7038 14.15L36.2538 14.11C36.3938 14.1033 36.5038 14.0867 36.5838 14.06C36.6704 14.04 36.7371 14.01 36.7838 13.97C36.8304 13.9233 36.8604 13.8633 36.8738 13.79C36.8938 13.7167 36.9038 13.6233 36.9038 13.51V11.43C36.6104 11.5233 36.3304 11.6067 36.0638 11.68C35.7971 11.7533 35.5671 11.8167 35.3738 11.87L35.2338 11.15C35.4404 11.0967 35.6904 11.03 35.9838 10.95C36.2771 10.8633 36.5838 10.77 36.9038 10.67V8.53H35.4838V7.81H36.9038V5.98L37.6138 6.01V7.81ZM43.5038 7V14.71H42.7738V13.89H40.0738V14.7H39.3338V7H43.5038ZM42.7738 13.17V7.75H40.0738V13.17H42.7738Z" fill="white"/>
</g>
<defs>
<filter id="filter0_d_274_2511" x="-1" y="0" width="62" height="22" filterUnits="userSpaceOnUse" color-interpolation-filters="sRGB">
<feFlood flood-opacity="0" result="BackgroundImageFix"/>
<feColorMatrix in="SourceAlpha" type="matrix" values="0 0 0 0 0 0 0 0 0 0 0 0 0 0 0 0 0 0 127 0" result="hardAlpha"/>
<feOffset dy="1"/>
<feGaussianBlur stdDeviation="0.5"/>
<feComposite in2="hardAlpha" operator="out"/>
<feColorMatrix type="matrix" values="0 0 0 0 0 0 0 0 0 0 0 0 0 0 0 0 0 0 0.09 0"/>
<feBlend mode="normal" in2="BackgroundImageFix" result="effect1_dropShadow_274_2511"/>
<feBlend mode="normal" in="SourceGraphic" in2="effect1_dropShadow_274_2511" result="shape"/>
</filter>
<linearGradient id="paint0_linear_274_2511" x1="4.5" y1="10" x2="60" y2="10" gradientUnits="userSpaceOnUse">
<stop stop-color="#987AF3"/>
<stop offset="1" stop-color="#EDA9B2"/>
</linearGradient>
</defs>
</svg>
