<svg width="60" height="20" viewBox="0 0 60 20" fill="none" xmlns="http://www.w3.org/2000/svg">
<g id="Group 47528">
<g id="Rectangle 4449" filter="url(#filter0_d_274_2440)">
<path d="M0 0H58C59.1046 0 60 0.895431 60 2V20H20C8.9543 20 0 11.0457 0 0V0Z" fill="url(#paint0_linear_274_2440)"/>
</g>
<path id="&#233;&#153;&#144;&#229;&#133;&#141;" d="M25.96 6.43H28.63V7.11C28.5433 7.57667 28.43 8.00333 28.29 8.39C28.1567 8.77 28.0033 9.15667 27.83 9.55C27.9033 9.70333 27.9833 9.85667 28.07 10.01C28.1567 10.1633 28.2333 10.3333 28.3 10.52C28.3733 10.7067 28.4333 10.9133 28.48 11.14C28.5267 11.3667 28.55 11.63 28.55 11.93C28.55 12.13 28.5367 12.3 28.51 12.44C28.49 12.58 28.45 12.7 28.39 12.8C28.33 12.8933 28.2433 12.9667 28.13 13.02C28.0233 13.0733 27.8867 13.11 27.72 13.13L27.12 13.21L26.89 12.54L27.36 12.49C27.46 12.47 27.5433 12.45 27.61 12.43C27.6833 12.4033 27.74 12.3667 27.78 12.32C27.82 12.2733 27.85 12.2133 27.87 12.14C27.89 12.06 27.9 11.96 27.9 11.84C27.9 11.5733 27.8767 11.3367 27.83 11.13C27.7833 10.9167 27.72 10.7233 27.64 10.55C27.5667 10.3767 27.4833 10.2167 27.39 10.07C27.2967 9.92333 27.2033 9.78 27.11 9.64C27.2833 9.25333 27.45 8.83667 27.61 8.39C27.7767 7.94333 27.8967 7.51667 27.97 7.11H26.64V14.89H25.96V6.43ZM32.42 12.66C32.6733 12.9467 32.9667 13.2033 33.3 13.43C33.64 13.65 34.0433 13.86 34.51 14.06L34.05 14.69C33.5767 14.45 33.1633 14.2033 32.81 13.95C32.4633 13.69 32.1567 13.4033 31.89 13.09C31.63 12.7767 31.4067 12.4267 31.22 12.04C31.0333 11.6533 30.8667 11.2067 30.72 10.7H29.87V13.99C29.9567 13.9567 30.07 13.91 30.21 13.85C30.35 13.79 30.4967 13.7267 30.65 13.66C30.81 13.5867 30.9667 13.5133 31.12 13.44C31.2733 13.36 31.4067 13.2867 31.52 13.22L31.63 13.89C31.49 13.9633 31.3233 14.0433 31.13 14.13C30.9367 14.2233 30.7433 14.31 30.55 14.39C30.3633 14.4767 30.1867 14.5533 30.02 14.62C29.86 14.6867 29.7433 14.7367 29.67 14.77C29.59 14.8033 29.5067 14.84 29.42 14.88C29.34 14.92 29.2533 14.9667 29.16 15.02L28.83 14.37C28.97 14.2967 29.06 14.23 29.1 14.17C29.1467 14.1167 29.17 14.0333 29.17 13.92V6.48H33.53V10.7H31.39C31.4833 10.98 31.58 11.24 31.68 11.48C31.7867 11.72 31.9067 11.9433 32.04 12.15C32.2733 12.0167 32.53 11.8467 32.81 11.64C33.0967 11.4333 33.3667 11.2067 33.62 10.96L34.05 11.47C33.7767 11.71 33.5 11.93 33.22 12.13C32.9467 12.33 32.68 12.5067 32.42 12.66ZM29.87 7.12V8.27H32.83V7.12H29.87ZM29.87 10.06H32.83V8.92H29.87V10.06ZM44.0038 12.88C43.9904 13.0333 43.9771 13.18 43.9638 13.32C43.9504 13.46 43.9271 13.6133 43.8938 13.78C43.8604 13.9533 43.8204 14.0933 43.7738 14.2C43.7271 14.3133 43.6571 14.4033 43.5638 14.47C43.4704 14.5367 43.3504 14.5867 43.2038 14.62C43.0571 14.6533 42.8671 14.6767 42.6338 14.69C42.3404 14.71 42.0704 14.72 41.8238 14.72C41.5838 14.72 41.3138 14.71 41.0138 14.69C40.8004 14.6767 40.6204 14.65 40.4738 14.61C40.3271 14.5767 40.2071 14.52 40.1138 14.44C40.0271 14.3667 39.9638 14.2633 39.9238 14.13C39.8904 14.0033 39.8738 13.8333 39.8738 13.62V11.63H39.8438C39.7238 12.0167 39.5604 12.3633 39.3538 12.67C39.1538 12.9767 38.8938 13.2633 38.5738 13.53C38.2538 13.7967 37.8704 14.0467 37.4238 14.28C36.9771 14.52 36.4504 14.7633 35.8438 15.01L35.4138 14.32C35.9538 14.1333 36.4271 13.9467 36.8338 13.76C37.2404 13.5667 37.5871 13.3633 37.8738 13.15C38.1671 12.9367 38.4071 12.7067 38.5938 12.46C38.7871 12.2133 38.9404 11.9367 39.0538 11.63H36.5438V9.09C36.4171 9.19 36.2871 9.29 36.1538 9.39C36.0271 9.49 35.8904 9.59 35.7438 9.69L35.3338 9.13C35.9671 8.69 36.5404 8.19333 37.0538 7.64C37.5738 7.08 38.0204 6.5 38.3938 5.9L39.0538 6.21C38.9138 6.43 38.7738 6.64 38.6338 6.84H42.1338V7.47L41.0738 8.65H43.1038V11.63H40.5838V13.38C40.5838 13.5067 40.5938 13.6067 40.6138 13.68C40.6338 13.7533 40.6671 13.8133 40.7138 13.86C40.7671 13.9 40.8371 13.93 40.9238 13.95C41.0104 13.9633 41.1204 13.9767 41.2538 13.99C41.4538 14.01 41.6404 14.02 41.8138 14.02C41.9871 14.02 42.1904 14.01 42.4238 13.99C42.5838 13.9767 42.7104 13.96 42.8038 13.94C42.8971 13.92 42.9704 13.89 43.0238 13.85C43.0771 13.8033 43.1138 13.7467 43.1338 13.68C43.1604 13.6133 43.1838 13.5233 43.2038 13.41C43.2371 13.2433 43.2571 13.1 43.2638 12.98C43.2771 12.86 43.2871 12.7333 43.2938 12.6L44.0038 12.88ZM38.1338 7.5C37.9671 7.70667 37.7938 7.90667 37.6138 8.1C37.4404 8.28667 37.2571 8.47 37.0638 8.65H40.1338L41.1638 7.5H38.1338ZM39.2438 10.97C39.2971 10.73 39.3371 10.4767 39.3638 10.21C39.3904 9.93667 39.4104 9.64 39.4238 9.32H37.2638V10.97H39.2438ZM42.3838 9.32H40.1738C40.1604 9.63333 40.1404 9.92667 40.1138 10.2C40.0871 10.4733 40.0504 10.73 40.0038 10.97H42.3838V9.32Z" fill="white"/>
</g>
<defs>
<filter id="filter0_d_274_2440" x="-1" y="0" width="62" height="22" filterUnits="userSpaceOnUse" color-interpolation-filters="sRGB">
<feFlood flood-opacity="0" result="BackgroundImageFix"/>
<feColorMatrix in="SourceAlpha" type="matrix" values="0 0 0 0 0 0 0 0 0 0 0 0 0 0 0 0 0 0 127 0" result="hardAlpha"/>
<feOffset dy="1"/>
<feGaussianBlur stdDeviation="0.5"/>
<feComposite in2="hardAlpha" operator="out"/>
<feColorMatrix type="matrix" values="0 0 0 0 0 0 0 0 0 0 0 0 0 0 0 0 0 0 0.09 0"/>
<feBlend mode="normal" in2="BackgroundImageFix" result="effect1_dropShadow_274_2440"/>
<feBlend mode="normal" in="SourceGraphic" in2="effect1_dropShadow_274_2440" result="shape"/>
</filter>
<linearGradient id="paint0_linear_274_2440" x1="0" y1="10" x2="60" y2="10" gradientUnits="userSpaceOnUse">
<stop stop-color="#00BEFD"/>
<stop offset="1" stop-color="#00FF77"/>
</linearGradient>
</defs>
</svg>
