<svg width="60" height="20" viewBox="0 0 60 20" fill="none" xmlns="http://www.w3.org/2000/svg">
<g id="Group 47532">
<g id="Rectangle 4448" filter="url(#filter0_d_274_2512)">
<path d="M0 0H58C59.1046 0 60 0.895431 60 2V20H20C8.9543 20 0 11.0457 0 0V0Z" fill="url(#paint0_linear_274_2512)"/>
</g>
<path id="&#231;&#131;&#173;&#233;&#151;&#168;" d="M28.8 9.56C28.6667 9.60667 28.5167 9.65667 28.35 9.71C28.19 9.76333 28.0167 9.81667 27.83 9.87V11.28C27.83 11.48 27.8133 11.6467 27.78 11.78C27.7467 11.9133 27.6833 12.0233 27.59 12.11C27.4967 12.19 27.37 12.2533 27.21 12.3C27.05 12.34 26.8467 12.37 26.6 12.39L26.09 12.43L25.85 11.75L26.45 11.7C26.5967 11.6867 26.7167 11.6733 26.81 11.66C26.9033 11.64 26.9733 11.61 27.02 11.57C27.0733 11.5233 27.1067 11.4633 27.12 11.39C27.14 11.31 27.15 11.2067 27.15 11.08V10.08C26.83 10.1733 26.52 10.26 26.22 10.34C25.92 10.42 25.6633 10.48 25.45 10.52L25.37 9.81C25.59 9.77667 25.8567 9.72 26.17 9.64C26.4833 9.55333 26.81 9.46 27.15 9.36V8.08H25.73V7.41H27.15V6.04L27.83 6.06V7.41H28.98V8.08H27.83V9.15L28.73 8.86L28.77 9.21L28.8 9.56ZM32.4 11.24C32.38 11.1467 32.36 11.01 32.34 10.83C32.3267 10.65 32.31 10.4533 32.29 10.24C32.2767 10.0267 32.2667 9.80667 32.26 9.58C32.2533 9.34667 32.25 9.13333 32.25 8.94V8.04H30.87C30.8633 8.38 30.85 8.69333 30.83 8.98C30.81 9.26667 30.7767 9.53 30.73 9.77C31.01 9.91667 31.2767 10.0667 31.53 10.22C31.79 10.3667 32.0067 10.5 32.18 10.62L31.84 11.33C31.68 11.1967 31.4833 11.0567 31.25 10.91C31.0233 10.7567 30.7833 10.6067 30.53 10.46C30.3833 10.8467 30.1767 11.2 29.91 11.52C29.65 11.84 29.3033 12.1767 28.87 12.53L28.32 12C28.54 11.84 28.7333 11.6867 28.9 11.54C29.0733 11.3933 29.2233 11.2467 29.35 11.1C29.4833 10.9467 29.5967 10.7933 29.69 10.64C29.7833 10.48 29.8633 10.31 29.93 10.13C29.7433 10.03 29.5667 9.94333 29.4 9.87C29.2333 9.79 29.0833 9.72333 28.95 9.67L29.23 9.08C29.4833 9.17333 29.7733 9.3 30.1 9.46C30.1333 9.26 30.1567 9.04333 30.17 8.81C30.1833 8.57667 30.1933 8.32 30.2 8.04H29.23V7.34H30.2V6.06L30.87 6.08V7.34H32.92V8.9C32.92 9.09333 32.9233 9.29667 32.93 9.51C32.9367 9.71667 32.9467 9.91667 32.96 10.11C32.9733 10.2967 32.9867 10.47 33 10.63C33.02 10.7833 33.0367 10.91 33.05 11.01C33.0833 11.1633 33.13 11.2867 33.19 11.38C33.25 11.4667 33.3067 11.51 33.36 11.51C33.4333 11.51 33.4933 11.48 33.54 11.42C33.5933 11.36 33.6467 11.2467 33.7 11.08C33.74 10.9467 33.7733 10.8067 33.8 10.66C33.8267 10.5067 33.85 10.3633 33.87 10.23L34.44 10.55C34.3867 10.7633 34.3333 10.9733 34.28 11.18C34.2267 11.38 34.1567 11.57 34.07 11.75C33.9833 11.93 33.8767 12.0733 33.75 12.18C33.6233 12.2867 33.4733 12.34 33.3 12.34C33.2267 12.34 33.1467 12.3233 33.06 12.29C32.9733 12.25 32.89 12.19 32.81 12.11C32.73 12.0233 32.6533 11.91 32.58 11.77C32.5067 11.63 32.4467 11.4533 32.4 11.24ZM32.89 12.38C32.9833 12.5133 33.0867 12.6767 33.2 12.87C33.32 13.0567 33.4367 13.2533 33.55 13.46C33.67 13.6667 33.78 13.87 33.88 14.07C33.9867 14.2767 34.07 14.4533 34.13 14.6L33.48 15.04C33.42 14.8733 33.34 14.6833 33.24 14.47C33.1467 14.2567 33.0433 14.0433 32.93 13.83C32.8233 13.6167 32.71 13.4167 32.59 13.23C32.4767 13.0367 32.3767 12.8767 32.29 12.75L32.89 12.38ZM30.98 12.53C31.04 12.6567 31.1033 12.8067 31.17 12.98C31.2433 13.1467 31.3133 13.3233 31.38 13.51C31.4533 13.6967 31.52 13.8867 31.58 14.08C31.64 14.2733 31.69 14.4567 31.73 14.63L31.05 14.89C31.01 14.7033 30.96 14.51 30.9 14.31C30.84 14.11 30.7767 13.9167 30.71 13.73C30.65 13.5367 30.5867 13.3567 30.52 13.19C30.46 13.0167 30.4 12.87 30.34 12.75L30.98 12.53ZM25.58 14.76C25.7933 14.42 25.99 14.0633 26.17 13.69C26.3567 13.31 26.5067 12.94 26.62 12.58L27.29 12.78C27.1433 13.2 26.98 13.6033 26.8 13.99C26.6267 14.3767 26.4433 14.74 26.25 15.08L25.58 14.76ZM28.93 12.7C28.9767 12.8267 29.0267 12.98 29.08 13.16C29.1333 13.34 29.1833 13.5267 29.23 13.72C29.2833 13.9067 29.3267 14.09 29.36 14.27C29.4 14.4567 29.43 14.62 29.45 14.76L28.75 14.98C28.7367 14.82 28.71 14.6433 28.67 14.45C28.6367 14.2567 28.5967 14.0633 28.55 13.87C28.51 13.6767 28.4633 13.49 28.41 13.31C28.3567 13.13 28.3067 12.9767 28.26 12.85L28.93 12.7ZM36.5738 5.97C36.6804 6.05667 36.8038 6.16667 36.9438 6.3C37.0904 6.43333 37.2371 6.57333 37.3838 6.72C37.5304 6.86667 37.6704 7.01333 37.8038 7.16C37.9371 7.3 38.0471 7.42333 38.1338 7.53L37.6238 8.19C37.5371 8.06333 37.4271 7.92 37.2938 7.76C37.1671 7.6 37.0304 7.44333 36.8838 7.29C36.7438 7.13667 36.6038 6.99 36.4638 6.85C36.3238 6.71 36.2004 6.59667 36.0938 6.51L36.5738 5.97ZM43.5738 13.5C43.5738 13.7733 43.5504 13.99 43.5038 14.15C43.4638 14.3167 43.3904 14.4433 43.2838 14.53C43.1838 14.6233 43.0438 14.6867 42.8638 14.72C42.6904 14.76 42.4704 14.7933 42.2038 14.82L41.3338 14.9L41.0938 14.11L41.9638 14.05C42.1438 14.0367 42.2871 14.02 42.3938 14C42.5071 13.98 42.5938 13.9433 42.6538 13.89C42.7138 13.83 42.7538 13.75 42.7738 13.65C42.7938 13.55 42.8038 13.4133 42.8038 13.24V7.39H38.5338V6.66H43.5738V13.5ZM36.6938 7.84V14.86H35.9538V7.8L36.6938 7.84Z" fill="white"/>
</g>
<defs>
<filter id="filter0_d_274_2512" x="-1" y="0" width="62" height="22" filterUnits="userSpaceOnUse" color-interpolation-filters="sRGB">
<feFlood flood-opacity="0" result="BackgroundImageFix"/>
<feColorMatrix in="SourceAlpha" type="matrix" values="0 0 0 0 0 0 0 0 0 0 0 0 0 0 0 0 0 0 127 0" result="hardAlpha"/>
<feOffset dy="1"/>
<feGaussianBlur stdDeviation="0.5"/>
<feComposite in2="hardAlpha" operator="out"/>
<feColorMatrix type="matrix" values="0 0 0 0 0 0 0 0 0 0 0 0 0 0 0 0 0 0 0.09 0"/>
<feBlend mode="normal" in2="BackgroundImageFix" result="effect1_dropShadow_274_2512"/>
<feBlend mode="normal" in="SourceGraphic" in2="effect1_dropShadow_274_2512" result="shape"/>
</filter>
<linearGradient id="paint0_linear_274_2512" x1="0" y1="10" x2="60" y2="10" gradientUnits="userSpaceOnUse">
<stop stop-color="#FFEC43"/>
<stop offset="1" stop-color="#DD44FF"/>
</linearGradient>
</defs>
</svg>
