<svg width="300" height="300" viewBox="0 0 300 300" fill="none" xmlns="http://www.w3.org/2000/svg">
<g id="logo1" clip-path="url(#clip0_283_2510)">
<g id="Group">
<path id="Vector" d="M110.566 130.069H93.5801V170.107H102.616V158.665H110.566C120.748 158.665 126.58 153.289 126.58 143.965C126.58 135.103 120.748 130.069 110.566 130.069ZM110.104 151.117H102.61V137.563H110.104C115.138 137.563 118 139.795 118 144.253C118 148.831 115.138 151.117 110.104 151.117Z" fill="#00F0FF"/>
<path id="Vector_2" d="M159.524 146.773H141.392V130.069H132.356V170.107H141.392V154.321H159.524V170.107H168.566V130.069H159.524V146.773Z" fill="#00F0FF"/>
<path id="Vector_3" d="M199.215 148.655C202.419 146.939 204.363 143.849 204.363 140.303C204.363 133.727 199.041 129.605 190.575 129.605C182.169 129.605 176.847 133.607 176.847 139.961C176.847 143.567 178.965 146.765 182.451 148.655C177.819 150.431 174.789 154.319 174.789 158.951C174.789 166.043 180.969 170.507 190.635 170.507C200.301 170.507 206.421 165.989 206.421 158.783C206.427 154.205 203.625 150.431 199.215 148.655ZM190.641 135.845C194.589 135.845 196.821 137.621 196.821 140.765C196.821 143.855 194.589 145.625 190.641 145.625C186.639 145.625 184.407 143.849 184.407 140.765C184.401 137.615 186.633 135.845 190.641 135.845ZM190.641 163.703C185.949 163.703 183.321 161.645 183.321 157.985C183.321 154.439 185.949 152.435 190.587 152.435C195.279 152.435 197.967 154.493 197.967 158.039C197.961 161.639 195.273 163.703 190.641 163.703Z" fill="#00F0FF"/>
<path id="Vector_4" d="M249.201 37.8027H50.8047C43.6227 37.8027 37.8027 43.6227 37.8027 50.8047V249.207C37.8027 256.383 43.6227 262.203 50.8047 262.203H249.207C256.389 262.203 262.209 256.383 262.209 249.201V50.8047C262.203 43.6227 256.383 37.8027 249.201 37.8027ZM234.585 161.679C235.299 159.879 237.057 158.607 239.109 158.607C241.797 158.607 243.981 160.791 243.981 163.479C243.981 166.167 241.797 168.351 239.109 168.351C237.057 168.351 235.299 167.079 234.585 165.279H219.903V188.631L244.359 188.739C245.085 186.945 246.843 185.679 248.895 185.685C251.583 185.697 253.755 187.887 253.749 190.581C253.737 193.269 251.547 195.441 248.853 195.435C246.801 195.423 245.049 194.145 244.341 192.345L219.897 192.237V212.901C219.897 216.801 216.735 219.963 212.835 219.963H192.225L192.333 244.353C194.133 245.061 195.417 246.813 195.423 248.865C195.435 251.553 193.263 253.749 190.569 253.761C187.881 253.773 185.685 251.601 185.673 248.907C185.661 246.855 186.927 245.091 188.727 244.371L188.619 219.969H165.267V234.597C167.067 235.311 168.339 237.069 168.339 239.121C168.339 241.809 166.155 243.993 163.467 243.993C160.779 243.993 158.595 241.809 158.595 239.121C158.595 237.069 159.867 235.311 161.667 234.597V219.969H138.171L138.279 244.359C140.079 245.067 141.363 246.819 141.369 248.871C141.381 251.559 139.209 253.755 136.515 253.767C133.827 253.779 131.631 251.607 131.619 248.913C131.613 246.861 132.873 245.097 134.673 244.377L134.565 219.975H111.213V234.603C113.013 235.317 114.285 237.075 114.285 239.127C114.285 241.815 112.101 243.999 109.413 243.999C106.725 243.999 104.541 241.815 104.541 239.127C104.541 237.075 105.813 235.317 107.613 234.603V219.975H87.1527C83.2527 219.975 80.0907 216.813 80.0907 212.913V192.249L55.6467 192.357C54.9387 194.157 53.1867 195.441 51.1347 195.447C48.4467 195.459 46.2507 193.287 46.2387 190.593C46.2267 187.905 48.3987 185.709 51.0927 185.697C53.1447 185.685 54.9087 186.951 55.6287 188.751L80.0847 188.643V165.291H65.4027C64.6887 167.091 62.9307 168.363 60.8787 168.363C58.1907 168.363 56.0067 166.179 56.0067 163.491C56.0067 160.803 58.1907 158.619 60.8787 158.619C62.9307 158.619 64.6887 159.891 65.4027 161.691H80.0847V138.189L55.6407 138.297C54.9327 140.097 53.1807 141.381 51.1287 141.387C48.4407 141.399 46.2447 139.227 46.2327 136.533C46.2207 133.845 48.3927 131.649 51.0867 131.637C53.1387 131.625 54.9027 132.891 55.6227 134.691L80.0787 134.583V111.231H65.3967C64.6827 113.031 62.9247 114.303 60.8727 114.303C58.1847 114.303 56.0007 112.119 56.0007 109.431C56.0007 106.743 58.1847 104.559 60.8727 104.559C62.9247 104.559 64.6827 105.831 65.3967 107.631H80.0787V87.2247C80.0787 83.3247 83.2407 80.1627 87.1407 80.1627H107.601V65.4267C105.801 64.7127 104.529 62.9547 104.529 60.9027C104.529 58.2147 106.713 56.0307 109.401 56.0307C112.089 56.0307 114.273 58.2147 114.273 60.9027C114.273 62.9547 113.001 64.7127 111.201 65.4267V80.1627H134.553L134.661 55.6527C132.867 54.9267 131.601 53.1687 131.607 51.1167C131.619 48.4287 133.809 46.2507 136.503 46.2627C139.191 46.2747 141.369 48.4647 141.357 51.1587C141.345 53.2107 140.067 54.9627 138.267 55.6707L138.159 80.1627H161.661V65.4267C159.861 64.7127 158.589 62.9547 158.589 60.9027C158.589 58.2147 160.773 56.0307 163.461 56.0307C166.149 56.0307 168.333 58.2147 168.333 60.9027C168.333 62.9547 167.061 64.7127 165.261 65.4267V80.1627H188.613L188.721 55.6527C186.927 54.9267 185.661 53.1687 185.667 51.1167C185.679 48.4287 187.869 46.2507 190.563 46.2627C193.251 46.2747 195.423 48.4647 195.417 51.1587C195.405 53.2107 194.127 54.9627 192.327 55.6707L192.219 80.1627H212.829C216.729 80.1627 219.891 83.3247 219.891 87.2247V107.631H234.573C235.287 105.831 237.045 104.559 239.097 104.559C241.785 104.559 243.969 106.743 243.969 109.431C243.969 112.119 241.785 114.303 239.097 114.303C237.045 114.303 235.287 113.031 234.573 111.231H219.903V134.583L244.359 134.691C245.085 132.897 246.843 131.631 248.895 131.637C251.583 131.649 253.755 133.839 253.749 136.533C253.737 139.221 251.547 141.399 248.853 141.387C246.801 141.375 245.049 140.097 244.341 138.297L219.897 138.189V161.691H234.585V161.679Z" fill="url(#paint0_linear_283_2510)"/>
</g>
</g>
<defs>
<linearGradient id="paint0_linear_283_2510" x1="150.006" y1="37.8027" x2="150.006" y2="262.203" gradientUnits="userSpaceOnUse">
<stop stop-color="#00F0FF"/>
<stop offset="1" stop-color="#00FF38"/>
</linearGradient>
<clipPath id="clip0_283_2510">
<rect width="300" height="300" fill="white"/>
</clipPath>
</defs>
</svg>
