<svg width="140" height="140" viewBox="0 0 140 140" fill="none" xmlns="http://www.w3.org/2000/svg">
<g id="&#229;&#136;&#135;&#229;&#155;&#190;">
<g id="Group 47504">
<path id="Vector" d="M9.20312 51.8803V112.609C9.20312 118.277 10.3505 119.358 15.9515 119.358H92.4239C97.9786 119.358 99.1724 118.327 99.1724 112.608V51.882C99.1724 46.3497 98.1143 45.1319 92.4239 45.1319H15.9515C10.3728 45.1319 9.20312 46.0989 9.20312 51.882V51.8803ZM88.5782 103.612H19.8436C27.3564 92.6594 40.7141 74.3911 44.1098 74.3911C47.3955 74.3911 58.5496 89.1452 63.5873 94.3409C63.5873 94.3409 70.0677 85.6825 73.4617 85.6825C76.9261 85.6877 88.4666 103.523 88.5782 103.612ZM68.3811 65.3754C68.3809 64.2857 68.5955 63.2066 69.0124 62.1997C69.4294 61.1929 70.0405 60.2781 70.8111 59.5074C71.5816 58.7368 72.4964 58.1255 73.5031 57.7085C74.5099 57.2914 75.589 57.0767 76.6788 57.0767C77.7685 57.0767 78.8476 57.2914 79.8544 57.7085C80.8612 58.1255 81.7759 58.7368 82.5465 59.5074C83.317 60.2781 83.9282 61.1929 84.3451 62.1997C84.762 63.2066 84.9766 64.2857 84.9765 65.3754C84.9762 67.5759 84.1018 69.6862 82.5458 71.2421C80.9897 72.798 78.8793 73.6721 76.6788 73.6721C74.4782 73.6721 72.3679 72.798 70.8118 71.2421C69.2557 69.6862 68.3813 67.5759 68.3811 65.3754ZM51.3975 41.0698L38.2425 38.5741C33.8763 37.7462 32.145 38.0417 31.0767 41.0715H51.3975V41.0698ZM113.375 52.8319L103.07 50.8772V112.693C103.07 115.527 102.882 118.734 100.641 120.938C98.4613 123.073 95.3043 123.253 92.5184 123.253H86.323L99.5348 125.747C104.992 126.778 106.357 125.988 107.422 120.376L118.749 60.7122C119.78 55.276 118.964 53.8847 113.375 52.8233V52.8319Z" fill="#C3E1E2"/>
<path id="Vector_2" d="M116.49 47.117L112.847 38.8033L106.167 35.161L112.847 31.5187L116.49 23.205L120.132 31.5187L126.812 35.161L120.132 38.8033L116.49 47.117ZM129.099 30.506L127.645 27.2067L124.999 25.753L127.645 24.2993L129.099 21L130.553 24.2993L133.215 25.753L130.553 27.2067L129.099 30.506Z" fill="#C3E0E2"/>
</g>
</g>
</svg>
