<svg width="100" height="100" viewBox="0 0 100 100" fill="none" xmlns="http://www.w3.org/2000/svg">
<g id="&#229;&#136;&#135;&#229;&#155;&#190;">
<g id="&#232;&#176;&#131;&#231;&#148;&#168;&#230;&#168;&#161;&#229;&#158;&#139;&#230;&#128;&#187;&#230;&#149;&#176;">
<g id="Group 47353" filter="url(#filter0_d_136_3479)">
<g id="Group 47352">
<path id="Rectangle 1200" d="M47.5209 21.0948C49.4329 20.3277 51.5671 20.3277 53.4791 21.0948L73.7036 29.2098C76.7366 30.4268 78.7245 33.3663 78.7245 36.6345L78.7245 64.438C78.7245 67.6697 76.78 70.5841 73.7959 71.8248L53.5715 80.2342C51.6054 81.0517 49.3946 81.0517 47.4285 80.2342L27.2041 71.8248C24.22 70.5841 22.2756 67.6697 22.2755 64.438V36.6344C22.2755 33.3663 24.2634 30.4268 27.2964 29.2098L47.5209 21.0948Z" fill="url(#paint0_linear_136_3479)"/>
</g>
<g id="Vector" filter="url(#filter1_b_136_3479)">
<path d="M50.004 45.7409C49.2948 45.7149 48.6116 45.5327 47.9803 45.2117L22.3651 33.1174C20.2118 32.1544 19.2432 29.621 20.2031 27.4607C20.6355 26.489 21.4052 25.7168 22.3651 25.2917L46.7091 13.7353C47.7374 13.251 48.8594 13 49.9953 13C51.1312 13 52.2532 13.251 53.2815 13.7353L77.6341 25.2917C79.7875 26.2547 80.756 28.7881 79.7961 30.9484C79.3637 31.9201 78.594 32.6923 77.6341 33.1174L52.0189 45.203C51.3963 45.5327 50.7044 45.7149 50.004 45.7409ZM43.3883 84.9997C42.731 84.9997 42.0824 84.8348 41.503 84.5225L18.3611 73.6342C16.891 72.862 15.9829 71.335 16.0002 69.6779V41.9148C16.0089 40.3531 16.8391 38.9216 18.1709 38.1234C19.4075 37.4207 20.9209 37.4207 22.1576 38.1234L45.2562 49.0031C46.6485 49.7579 47.5393 51.2068 47.5998 52.7945V80.5923C47.5825 82.1453 46.7696 83.5768 45.4465 84.3837C44.8238 84.7567 44.1147 84.9736 43.3883 84.9997ZM56.611 84.9997C55.8932 84.9997 55.1841 84.8088 54.5528 84.4531C53.2296 83.6462 52.4167 82.2147 52.3994 80.6617V52.7858C52.434 51.2068 53.2988 49.7666 54.6652 48.9944L77.9195 38.0453C79.1475 37.3946 80.635 37.4293 81.8284 38.1408C83.1688 38.9303 83.9904 40.3705 83.999 41.9322V69.6779C84.0336 71.3177 83.1602 72.8446 81.7332 73.6342L58.5049 84.5312C57.9168 84.8435 57.2682 85.0084 56.611 84.9997Z" fill="#FAFCFF" fill-opacity="0.4"/>
<path d="M48.207 44.766L48.2004 44.7627L48.1938 44.7596L22.5786 32.6653L22.5787 32.6652L22.5693 32.661C20.6684 31.8108 19.8117 29.5729 20.6601 27.6637C21.0428 26.8037 21.7227 26.123 22.5676 25.7488L22.5677 25.749L22.5796 25.7434L46.9221 14.1876C46.9223 14.1875 46.9226 14.1874 46.9228 14.1873C47.8843 13.7346 48.9333 13.5 49.9953 13.5C51.0574 13.5 52.1064 13.7347 53.068 14.1874C53.0681 14.1875 53.0683 14.1876 53.0685 14.1876L77.4198 25.7434L77.4197 25.7435L77.43 25.7481C79.3309 26.5982 80.1875 28.8362 79.3392 30.7454C78.9564 31.6054 78.2766 32.286 77.4317 32.6602L77.4316 32.6601L77.4208 32.6652L51.8056 44.7508L51.7951 44.7557L51.785 44.7611C51.2355 45.0521 50.6241 45.2148 50.0038 45.2405C49.3761 45.2148 48.7702 45.0524 48.207 44.766ZM41.7403 84.0824L41.7283 84.0759L41.7159 84.0701L18.5842 73.1865C17.2863 72.5004 16.4849 71.1497 16.5002 69.6831H16.5002V69.6779V41.9162C16.5084 40.5343 17.2422 39.2653 18.4229 38.5553C19.5055 37.9424 20.8287 37.9434 21.9105 38.5581L21.9272 38.5676L21.9445 38.5758L45.03 49.4492C46.2554 50.1191 47.043 51.399 47.0998 52.8043V80.5894C47.0835 81.9688 46.3617 83.2391 45.1879 83.9557C44.6379 84.2849 44.0145 84.4753 43.3793 84.4997C42.8086 84.4982 42.2447 84.3543 41.7403 84.0824ZM56.6176 84.4997H56.611C55.9847 84.4997 55.3626 84.3338 54.8058 84.0217C53.6353 83.3045 52.9157 82.036 52.8994 80.6588V52.7915C52.9318 51.397 53.6932 50.1253 54.8955 49.4386L78.1325 38.4977L78.1432 38.4927L78.1536 38.4872C79.228 37.9178 80.5296 37.9487 81.5723 38.5703L81.5746 38.5716C82.7613 39.2706 83.4909 40.5466 83.499 41.9336C83.499 41.9341 83.499 41.9345 83.499 41.9349L83.4989 69.6779L83.4991 69.6885C83.5297 71.1389 82.7599 72.4877 81.5053 73.1888L58.2925 84.0785L58.2813 84.0838L58.2703 84.0896C57.7524 84.3647 57.1863 84.5072 56.6176 84.4997Z" stroke="white"/>
</g>
</g>
</g>
</g>
<defs>
<filter id="filter0_d_136_3479" x="11" y="13" width="78" height="82" filterUnits="userSpaceOnUse" color-interpolation-filters="sRGB">
<feFlood flood-opacity="0" result="BackgroundImageFix"/>
<feColorMatrix in="SourceAlpha" type="matrix" values="0 0 0 0 0 0 0 0 0 0 0 0 0 0 0 0 0 0 127 0" result="hardAlpha"/>
<feOffset dy="5"/>
<feGaussianBlur stdDeviation="2.5"/>
<feComposite in2="hardAlpha" operator="out"/>
<feColorMatrix type="matrix" values="0 0 0 0 0 0 0 0 0 0 0 0 0 0 0 0 0 0 0.51 0"/>
<feBlend mode="normal" in2="BackgroundImageFix" result="effect1_dropShadow_136_3479"/>
<feBlend mode="normal" in="SourceGraphic" in2="effect1_dropShadow_136_3479" result="shape"/>
</filter>
<filter id="filter1_b_136_3479" x="10" y="7" width="80" height="84" filterUnits="userSpaceOnUse" color-interpolation-filters="sRGB">
<feFlood flood-opacity="0" result="BackgroundImageFix"/>
<feGaussianBlur in="BackgroundImageFix" stdDeviation="3"/>
<feComposite in2="SourceAlpha" operator="in" result="effect1_backgroundBlur_136_3479"/>
<feBlend mode="normal" in="SourceGraphic" in2="effect1_backgroundBlur_136_3479" result="shape"/>
</filter>
<linearGradient id="paint0_linear_136_3479" x1="74.25" y1="26.75" x2="26.75" y2="74.25" gradientUnits="userSpaceOnUse">
<stop stop-color="#00FF38"/>
<stop offset="1" stop-color="#00F0FF"/>
</linearGradient>
</defs>
</svg>
