<svg width="100" height="100" viewBox="0 0 100 100" fill="none" xmlns="http://www.w3.org/2000/svg">
<g id="&#229;&#136;&#135;&#229;&#155;&#190;">
<g id="&#232;&#176;&#131;&#231;&#148;&#168;token&#230;&#128;&#187;&#230;&#149;&#176;">
<g id="Group 47355" filter="url(#filter0_d_136_3479)">
<path id="Polygon 2" d="M49.4375 12.7321C51.2939 11.6603 53.5811 11.6603 55.4375 12.7321L81.1016 27.5492C82.958 28.621 84.1016 30.6018 84.1016 32.7454V62.3797C84.1016 64.5232 82.958 66.504 81.1016 67.5758L55.4375 82.393C53.5811 83.4647 51.2939 83.4647 49.4375 82.393L23.7734 67.5758C21.917 66.504 20.7734 64.5232 20.7734 62.3797V32.7453C20.7734 30.6018 21.917 28.621 23.7734 27.5492L49.4375 12.7321Z" fill="url(#paint0_linear_136_3479)"/>
<g id="Polygon 1" filter="url(#filter1_b_136_3479)">
<path d="M44.5625 17.0446C46.4189 15.9728 48.7061 15.9728 50.5625 17.0446L76.2266 31.8617C78.083 32.9335 79.2266 34.9143 79.2266 37.0579V66.6922C79.2266 68.8357 78.083 70.8165 76.2266 71.8883L50.5625 86.7055C48.7061 87.7772 46.4189 87.7772 44.5625 86.7055L18.8984 71.8883C17.042 70.8165 15.8984 68.8357 15.8984 66.6922V37.0578C15.8984 34.9143 17.042 32.9335 18.8984 31.8617L44.5625 17.0446Z" fill="#FAFCFF" fill-opacity="0.4"/>
<path d="M44.8125 17.4776C46.5142 16.4951 48.6108 16.4951 50.3125 17.4776L75.9766 32.2947C77.6783 33.2772 78.7266 35.0929 78.7266 37.0579V66.6922C78.7266 68.6571 77.6783 70.4728 75.9766 71.4553L50.3125 86.2724C48.6108 87.2549 46.5142 87.2549 44.8125 86.2724L19.1484 71.4553C17.4467 70.4728 16.3984 68.6571 16.3984 66.6922V37.0578C16.3984 35.0929 17.4467 33.2772 19.1484 32.2947L44.8125 17.4776Z" stroke="white"/>
</g>
<g id="tabler:key-filled">
<path id="Vector" d="M50.4833 40.2266C51.8021 40.2266 53.0659 40.7508 53.9977 41.6826L58.6143 46.2992C59.0758 46.7606 59.4418 47.3084 59.6915 47.9113C59.9413 48.5142 60.0698 49.1604 60.0698 49.813C60.0698 50.4655 59.9413 51.1117 59.6915 51.7146C59.4418 52.3175 59.0758 52.8653 58.6143 53.3267L55.2268 56.7142C54.4051 57.5352 53.3219 58.0426 52.1651 58.1484C51.0084 58.2542 49.8511 57.9518 48.894 57.2935L48.7594 57.1936L41.2205 64.7338C40.637 65.3153 39.8822 65.694 39.0673 65.8142L38.7853 65.8488L38.502 65.8604H36.9999C35.7003 65.8604 34.607 64.8876 34.4481 63.5238L34.4365 63.297V61.7948C34.4365 60.8925 34.7544 60.0184 35.3722 59.2827L35.5631 59.0764L36.0937 58.5458C36.3341 58.3054 36.66 58.1703 36.9999 58.1702H38.2816V56.8885C38.2816 56.5746 38.3969 56.2716 38.6055 56.037C38.8141 55.8024 39.1016 55.6525 39.4133 55.6158L39.5633 55.6068H40.845V54.3252C40.845 54.0434 40.9377 53.7696 41.109 53.5459L41.2205 53.4177L43.102 51.5349L43.0046 51.4029C42.4929 50.6582 42.1926 49.7887 42.1356 48.8869L42.1267 48.5845C42.1267 47.2656 42.6509 46.0019 43.5827 45.0701L46.9702 41.6826C47.9021 40.751 49.1656 40.2273 50.4833 40.2266ZM51.1177 46.635H51.0921C50.4122 46.635 49.7602 46.9051 49.2795 47.3858C48.7988 47.8665 48.5287 48.5185 48.5287 49.1984C48.5287 49.8782 48.7988 50.5302 49.2795 51.011C49.7602 51.4917 50.4122 51.7618 51.0921 51.7618H51.1177C51.7976 51.7618 52.4496 51.4917 52.9303 51.011C53.411 50.5302 53.6811 49.8782 53.6811 49.1984C53.6811 48.5185 53.411 47.8665 52.9303 47.3858C52.4496 46.9051 51.7976 46.635 51.1177 46.635Z" fill="white"/>
</g>
</g>
</g>
</g>
<defs>
<filter id="filter0_d_136_3479" x="10.8984" y="11.9277" width="78.2031" height="85.582" filterUnits="userSpaceOnUse" color-interpolation-filters="sRGB">
<feFlood flood-opacity="0" result="BackgroundImageFix"/>
<feColorMatrix in="SourceAlpha" type="matrix" values="0 0 0 0 0 0 0 0 0 0 0 0 0 0 0 0 0 0 127 0" result="hardAlpha"/>
<feOffset dy="5"/>
<feGaussianBlur stdDeviation="2.5"/>
<feComposite in2="hardAlpha" operator="out"/>
<feColorMatrix type="matrix" values="0 0 0 0 0 0 0 0 0 0 0 0 0 0 0 0 0 0 0.51 0"/>
<feBlend mode="normal" in2="BackgroundImageFix" result="effect1_dropShadow_136_3479"/>
<feBlend mode="normal" in="SourceGraphic" in2="effect1_dropShadow_136_3479" result="shape"/>
</filter>
<filter id="filter1_b_136_3479" x="9.89844" y="10.2402" width="75.3281" height="83.2695" filterUnits="userSpaceOnUse" color-interpolation-filters="sRGB">
<feFlood flood-opacity="0" result="BackgroundImageFix"/>
<feGaussianBlur in="BackgroundImageFix" stdDeviation="3"/>
<feComposite in2="SourceAlpha" operator="in" result="effect1_backgroundBlur_136_3479"/>
<feBlend mode="normal" in="SourceGraphic" in2="effect1_backgroundBlur_136_3479" result="shape"/>
</filter>
<linearGradient id="paint0_linear_136_3479" x1="52.4375" y1="11" x2="52.4375" y2="84.125" gradientUnits="userSpaceOnUse">
<stop stop-color="#00FF38"/>
<stop offset="1" stop-color="#00F0FF"/>
</linearGradient>
</defs>
</svg>
