<svg width="100" height="100" viewBox="0 0 100 100" fill="none" xmlns="http://www.w3.org/2000/svg">
<g id="&#229;&#136;&#135;&#229;&#155;&#190;">
<g id="&#232;&#176;&#131;&#231;&#148;&#168;&#231;&#180;&#175;&#232;&#174;&#161;&#233;&#135;&#145;&#233;&#162;&#157;">
<g id="Group 47356" filter="url(#filter0_d_136_3479)">
<circle id="Ellipse 1480" cx="52.3425" cy="47.6574" r="35.6574" fill="url(#paint0_linear_136_3479)"/>
<g id="Ellipse 1481" filter="url(#filter1_b_136_3479)">
<circle cx="48.6574" cy="51.7024" r="35.6574" fill="#FAFCFF" fill-opacity="0.4"/>
<circle cx="48.6574" cy="51.7024" r="35.1574" stroke="white"/>
</g>
<path id="$" d="M56.2143 56.6215C56.2143 58.7115 55.6973 60.2845 54.6633 61.3405C53.6293 62.3965 51.8913 63.0015 49.4493 63.1555V67.9075H47.0073V63.2215C46.3473 63.1995 45.6873 63.1665 45.0273 63.1225C44.3893 63.0785 43.7733 63.0235 43.1793 62.9575C42.6073 62.8915 42.0683 62.8145 41.5623 62.7265C41.0783 62.6385 40.6713 62.5395 40.3413 62.4295V58.2715C40.6713 58.3815 41.0893 58.4915 41.5953 58.6015C42.1013 58.6895 42.6403 58.7775 43.2123 58.8655C43.8063 58.9315 44.4223 58.9975 45.0603 59.0635C45.7203 59.1075 46.3693 59.1405 47.0073 59.1625V53.3875C45.6873 53.1235 44.5983 52.8265 43.7403 52.4965C42.9043 52.1445 42.2333 51.7155 41.7273 51.2095C41.2433 50.7035 40.9023 50.0985 40.7043 49.3945C40.5063 48.6685 40.4073 47.7885 40.4073 46.7545C40.4073 45.6545 40.5503 44.7195 40.8363 43.9495C41.1443 43.1795 41.5733 42.5525 42.1233 42.0685C42.6953 41.5625 43.3883 41.1885 44.2023 40.9465C45.0163 40.6825 45.9513 40.5175 47.0073 40.4515V37.3825H49.4493V40.4515C50.5053 40.4955 51.5173 40.5945 52.4853 40.7485C53.4753 40.8805 54.2343 41.0345 54.7623 41.2105V45.1375C54.2563 44.9615 53.5083 44.7965 52.5183 44.6425C51.5283 44.4665 50.5053 44.3565 49.4493 44.3125V49.7905C50.7693 50.0765 51.8693 50.4065 52.7493 50.7805C53.6293 51.1545 54.3223 51.6055 54.8283 52.1335C55.3343 52.6615 55.6863 53.2995 55.8843 54.0475C56.1043 54.7735 56.2143 55.6315 56.2143 56.6215ZM44.6973 46.7545C44.6973 47.1065 44.7193 47.4145 44.7633 47.6785C44.8293 47.9205 44.9393 48.1405 45.0933 48.3385C45.2693 48.5365 45.5113 48.7125 45.8193 48.8665C46.1273 48.9985 46.5233 49.1305 47.0073 49.2625V44.3455C46.1273 44.4335 45.5223 44.6535 45.1923 45.0055C44.8623 45.3355 44.6973 45.9185 44.6973 46.7545ZM49.4493 59.0965C50.3733 58.9865 51.0113 58.7445 51.3633 58.3705C51.7153 57.9965 51.8913 57.4245 51.8913 56.6545C51.8913 56.3025 51.8583 55.9945 51.7923 55.7305C51.7263 55.4445 51.6053 55.2025 51.4293 55.0045C51.2533 54.7845 51.0003 54.5975 50.6703 54.4435C50.3623 54.2675 49.9553 54.1025 49.4493 53.9485V59.0965Z" fill="white"/>
</g>
</g>
</g>
<defs>
<filter id="filter0_d_136_3479" x="8" y="12" width="85" height="85.3594" filterUnits="userSpaceOnUse" color-interpolation-filters="sRGB">
<feFlood flood-opacity="0" result="BackgroundImageFix"/>
<feColorMatrix in="SourceAlpha" type="matrix" values="0 0 0 0 0 0 0 0 0 0 0 0 0 0 0 0 0 0 127 0" result="hardAlpha"/>
<feOffset dy="5"/>
<feGaussianBlur stdDeviation="2.5"/>
<feComposite in2="hardAlpha" operator="out"/>
<feColorMatrix type="matrix" values="0 0 0 0 0 0 0 0 0 0 0 0 0 0 0 0 0 0 0.51 0"/>
<feBlend mode="normal" in2="BackgroundImageFix" result="effect1_dropShadow_136_3479"/>
<feBlend mode="normal" in="SourceGraphic" in2="effect1_dropShadow_136_3479" result="shape"/>
</filter>
<filter id="filter1_b_136_3479" x="7" y="10.0449" width="83.3149" height="83.3145" filterUnits="userSpaceOnUse" color-interpolation-filters="sRGB">
<feFlood flood-opacity="0" result="BackgroundImageFix"/>
<feGaussianBlur in="BackgroundImageFix" stdDeviation="3"/>
<feComposite in2="SourceAlpha" operator="in" result="effect1_backgroundBlur_136_3479"/>
<feBlend mode="normal" in="SourceGraphic" in2="effect1_backgroundBlur_136_3479" result="shape"/>
</filter>
<linearGradient id="paint0_linear_136_3479" x1="52.3425" y1="12" x2="52.3425" y2="83.3149" gradientUnits="userSpaceOnUse">
<stop stop-color="#00FF38"/>
<stop offset="1" stop-color="#00F0FF"/>
</linearGradient>
</defs>
</svg>
