<svg width="140" height="140" viewBox="0 0 140 140" fill="none" xmlns="http://www.w3.org/2000/svg">
<g id="&#229;&#136;&#135;&#229;&#155;&#190;">
<g id="Group 47513">
<path id="Vector" d="M106.49 48.117L102.847 39.8033L96.167 36.161L102.847 32.5187L106.49 24.205L110.132 32.5187L116.812 36.161L110.132 39.8033L106.49 48.117ZM119.099 31.506L117.645 28.2067L114.999 26.753L117.645 25.2993L119.099 22L120.553 25.2993L123.215 26.753L120.553 28.2067L119.099 31.506Z" fill="#C3E0E2"/>
<g id="Iconfont SVG # &#232;&#167;&#134;&#233;&#162;&#145;">
<path id="Vector_2" d="M54.925 60.4999L43.0251 46.5H29.55L41.4501 60.4999H54.925ZM89.925 60.4999L78.025 46.5H64.5501L76.45 60.4999H89.925ZM72.4251 60.4999L60.525 46.5H47.05L58.95 60.4999H72.4251ZM95.0001 46.5H82.05L93.9501 60.4999H100.25V51.75C100.25 48.775 97.975 46.5 95.0001 46.5ZM25.525 46.5H25C22.0251 46.5 19.75 48.775 19.75 51.75V60.4999H37.425L25.525 46.5ZM19.75 118.25C19.75 121.225 22.0251 123.5 25 123.5H95.0001C97.975 123.5 100.25 121.225 100.25 118.25V64H19.75V118.25ZM47.7501 79.75C47.7501 76.7749 50.2 75.375 53.0001 75.375C53.875 75.375 54.925 75.55 55.8 76.075L75.75 87.625C79.2501 89.55 79.2501 94.45 75.75 96.375L55.8 107.925C54.925 108.45 54.0501 108.625 53.0001 108.625C50.2 108.625 47.7501 107.225 47.7501 104.25V79.75Z" fill="#C3E0E2"/>
</g>
</g>
</g>
</svg>
