<svg width="20" height="20" viewBox="0 0 20 20" fill="none" xmlns="http://www.w3.org/2000/svg">
<g id="&#229;&#190;&#174;&#228;&#191;&#161;">
<rect id="&#231;&#159;&#169;&#229;&#189;&#162;" opacity="0.01" width="20" height="20" fill="black"/>
<path id="&#229;&#189;&#162;&#231;&#138;&#182;" fill-rule="evenodd" clip-rule="evenodd" d="M20.0003 12.6018C20.0003 9.73729 17.2101 7.4043 14.0783 7.4043C10.7609 7.4043 8.14844 9.73931 8.14844 12.6018C8.14844 15.4704 10.7609 17.7993 14.0783 17.7993C14.7695 17.7993 15.4665 17.6208 16.1596 17.4432L16.1714 17.4402L18.0829 18.5154L17.5576 16.7261C18.9577 15.6468 20.0003 14.2166 20.0003 12.6018ZM12.2438 11.8067C11.8074 11.8067 11.4539 11.4436 11.4539 10.9952C11.4539 10.5469 11.8074 10.1837 12.2438 10.1837C12.6802 10.1837 13.0336 10.5469 13.0336 10.9952C13.0336 11.4415 12.6802 11.8067 12.2438 11.8067ZM15.2909 10.9892C15.2909 11.4375 15.6443 11.8007 16.0807 11.8007C16.5171 11.8007 16.8706 11.4375 16.8706 10.9892C16.8706 10.5409 16.5171 10.1777 16.0807 10.1777C15.6443 10.1777 15.2909 10.5409 15.2909 10.9892Z" fill="#00C800"/>
<path id="&#229;&#189;&#162;&#231;&#138;&#182;_2" fill-rule="evenodd" clip-rule="evenodd" d="M7.00529 2.22461C3.15447 2.22461 0 4.80796 0 8.0884C0 9.98246 1.0495 11.5368 2.80331 12.7435L2.10298 14.8172L4.55116 13.6085C4.69415 13.6362 4.8325 13.6641 4.96771 13.6913C5.6617 13.831 6.27304 13.9541 7.00529 13.9541C7.22551 13.9541 7.44374 13.9444 7.65999 13.9268C7.5231 13.466 7.44374 12.9837 7.44374 12.4818C7.44374 9.46891 10.0725 7.02421 13.3995 7.02421C13.6277 7.02421 13.8519 7.03983 14.0741 7.06521C13.467 4.28855 10.4494 2.22461 7.00529 2.22461ZM4.65234 6.95672C4.12659 6.95672 3.70005 6.5369 3.70005 6.01945C3.70005 5.502 4.12659 5.08218 4.65234 5.08218C5.17808 5.08218 5.60463 5.502 5.60463 6.01945C5.60463 6.5369 5.17808 6.95672 4.65234 6.95672ZM8.59244 6.01945C8.59244 6.5369 9.01898 6.95672 9.54473 6.95672C10.0705 6.95672 10.497 6.5369 10.497 6.01945C10.497 5.502 10.0705 5.08218 9.54473 5.08218C9.01898 5.08218 8.59244 5.502 8.59244 6.01945Z" fill="#00C800"/>
</g>
</svg>
