<svg width="20" height="20" viewBox="0 0 20 20" fill="none" xmlns="http://www.w3.org/2000/svg">
<g id="Iconfont SVG # &#230;&#148;&#175;&#228;&#187;&#152;-&#229;&#190;&#174;&#228;&#191;&#161;&#230;&#148;&#175;&#228;&#187;&#152;" clip-path="url(#clip0_201_6937)">
<path id="Vector" d="M18.6394 6.1267L7.25858 12.6993L7.19021 12.7457C7.09978 12.792 7.00714 12.814 6.89245 12.814C6.64102 12.814 6.43369 12.6773 6.319 12.47L6.27268 12.3795L4.4641 8.43816C4.44205 8.39184 4.44205 8.34773 4.44205 8.30141C4.44205 8.11835 4.57879 7.9794 4.76406 7.9794C4.83244 7.9794 4.90081 8.00145 4.96918 8.04777L7.09978 9.5608C7.25858 9.65123 7.44385 9.7196 7.64897 9.7196C7.76366 9.7196 7.87614 9.69755 7.99304 9.65123L17.9799 5.20698C16.1934 3.10285 13.2401 1.72656 9.89425 1.72656C4.44425 1.72656 0 5.41651 0 9.97325C0 12.4457 1.32776 14.691 3.41204 16.204C3.57084 16.3187 3.68553 16.526 3.68553 16.7312C3.68553 16.7995 3.66348 16.8679 3.63922 16.9363C3.48041 17.5538 3.20251 18.564 3.20251 18.6081C3.18045 18.6765 3.15619 18.7669 3.15619 18.8595C3.15619 19.0426 3.29294 19.1816 3.47821 19.1816C3.54658 19.1816 3.61495 19.1595 3.66127 19.1132L5.81392 17.8538C5.97272 17.7634 6.15799 17.695 6.34106 17.695C6.43149 17.695 6.54618 17.7171 6.63881 17.7413C7.64676 18.0391 8.74735 18.2001 9.86999 18.2001C15.3178 18.1979 19.762 14.5079 19.762 9.95339C19.762 8.57711 19.3496 7.27361 18.6394 6.1267Z" fill="#09BB07"/>
</g>
<defs>
<clipPath id="clip0_201_6937">
<rect width="20" height="20" fill="white"/>
</clipPath>
</defs>
</svg>
